# xmcd
#
# Track frame offsets: 
#        150
#        22690
#        49754
#        62474
#        81540
#        101637
#        127376
#        144025
#        163671
#        181728
#        212418
#        222306
#
# Disc length: 3277 seconds
#
# Revision: 0
# Processed by: cddbd v1.5.2PL0 Copyright (c) Steve Scherf et al.
# Submitted via: ExactAudioCopyFreeDBPlugin 1.0
#
DISCID=a10ccb0c
DTITLE=Alison Krauss and Union Station - Live - CD2
DYEAR=2002
DGENRE=Country
TTITLE0=A Tribute To Peador O'Donnell - Monkey Let The Hogs Out
TTITLE1=The Boy Who Wouldn't Hoe Corn
TTITLE2=Take Me For Longing
TTITLE3=I Am A Man Of Constant Sorrow
TTITLE4=Maybe
TTITLE5=We Hide and Seek
TTITLE6=But You Know I Love You
TTITLE7=When You Say Nothing At All
TTITLE8=New Favorite
TTITLE9=Oh, Atlanta
TTITLE10=Down To The River To Pray
TTITLE11=There Is A Reason
EXTD=
EXTT0=
EXTT1=
EXTT2=
EXTT3=
EXTT4=
EXTT5=
EXTT6=
EXTT7=
EXTT8=
EXTT9=
EXTT10=
EXTT11=
PLAYORDER=
